<svg xmlns="http://www.w3.org/2000/svg" version="1.0" preserveAspectRatio="xMidYMid meet" viewBox="3.85 0.02 1005.91 1001.8">

<g transform="translate(0.000000,1024.000000) scale(0.100000,-0.100000)" fill="#000000" stroke="none">
<path d="M3190 10230 c0 -5 -7 -10 -15 -10 -17 0 -125 -128 -172 -203 -17 -29 -57 -97 -88 -152 -31 -55 -60 -107 -65 -115 -5 -8 -27 -51 -50 -95 -40 -79 -55 -109 -85 -162 -9 -16 -25 -49 -37 -74 l-21 -47 -28 17 c-16 9 -29 19 -29 24 0 4 -13 7 -29 7 -17 0 -32 4 -36 9 -3 6 -37 13 -75 17 -39 4 -73 11 -76 16 -3 5 7 43 22 84 20 55 24 78 16 86 -8 8 -16 7 -28 -3 -21 -17 -19 -10 17 84 18 47 20 62 11 82 -24 53 -77 19 -179 -117 -39 -52 -78 -100 -87 -107 -14 -12 -16 -10 -16 15 0 16 -7 54 -16 84 -9 30 -19 73 -24 95 -17 86 -54 123 -90 90 -21 -19 -22 -23 -59 -212 -17 -84 -32 -147 -41 -168 -5 -11 -10 -27 -13 -35 -2 -9 -17 6 -40 40 -106 159 -205 287 -229 295 -52 18 -75 -44 -40 -107 10 -18 29 -60 41 -93 13 -33 27 -70 32 -82 5 -13 13 -33 18 -45 5 -13 14 -36 20 -51 6 -15 11 -32 11 -36 0 -5 -28 -11 -63 -13 -35 -3 -72 -10 -83 -16 -10 -6 -46 -23 -79 -39 -33 -15 -62 -30 -65 -33 -11 -12 -94 -70 -101 -70 -3 0 -45 37 -92 83 -47 45 -105 98 -128 118 -24 20 -60 50 -79 66 -19 16 -84 67 -145 113 -60 46 -112 86 -115 89 -3 3 -12 11 -21 16 -9 6 -41 28 -71 50 -82 61 -92 65 -169 65 -89 0 -119 -19 -155 -97 -24 -53 -25 -62 -20 -197 4 -135 12 -205 36 -326 6 -30 13 -73 17 -95 3 -22 9 -44 14 -50 5 -5 9 -23 9 -40 0 -17 4 -35 9 -40 5 -6 12 -28 15 -50 3 -22 10 -69 15 -105 6 -36 15 -114 21 -175 5 -60 15 -155 20 -210 15 -145 13 -159 -23 -238 -18 -40 -43 -106 -56 -147 -13 -41 -27 -83 -32 -92 -5 -10 -9 -25 -9 -35 0 -9 -4 -30 -9 -47 -5 -17 -15 -51 -21 -76 -31 -117 -74 -204 -129 -257 l-53 -53 33 0 c19 -1 55 -11 81 -23 l47 -22 -28 -46 c-16 -25 -52 -65 -82 -90 -88 -74 -93 -80 -78 -90 8 -5 42 -9 76 -9 65 0 93 -6 93 -22 0 -5 -24 -32 -54 -61 -51 -50 -66 -59 -163 -105 -45 -20 -46 -32 -3 -32 14 0 31 -5 37 -11 6 -6 35 -14 64 -17 47 -6 54 -10 55 -30 1 -13 6 -33 12 -45 6 -12 18 -42 26 -67 35 -109 101 -257 146 -325 14 -22 32 -52 39 -67 18 -35 117 -156 153 -187 32 -27 34 -36 14 -77 -14 -29 -40 -89 -58 -134 -6 -14 -14 -33 -19 -42 -5 -10 -9 -27 -9 -37 0 -11 -4 -22 -9 -25 -5 -3 -11 -20 -14 -38 -4 -18 -9 -48 -13 -67 -9 -44 6 -35 35 23 24 45 145 186 162 186 5 0 4 -12 -2 -27 -15 -39 1 -48 55 -33 39 11 49 10 83 -6 45 -22 45 -33 1 -107 -48 -79 -88 -165 -88 -187 0 -10 -4 -22 -10 -25 -13 -8 -13 -45 -1 -45 5 0 31 26 58 57 26 32 57 67 68 79 11 12 37 40 58 63 20 23 39 41 42 41 3 0 5 -16 5 -35 l0 -35 55 6 c43 5 65 3 95 -11 22 -10 40 -20 40 -22 0 -6 -67 -151 -80 -175 -6 -10 -10 -27 -10 -37 0 -11 -4 -22 -9 -25 -12 -7 -21 -71 -26 -171 -3 -49 -1 -72 4 -60 16 38 31 91 31 111 0 37 70 160 123 217 30 31 57 57 61 57 3 0 6 -9 6 -19 0 -28 17 -35 72 -32 40 2 60 -5 132 -44 46 -25 115 -56 152 -69 125 -44 342 -94 509 -116 39 -6 116 -16 173 -24 111 -15 125 -22 146 -70 15 -33 17 -42 44 -176 24 -126 19 -288 -13 -400 -7 -25 -18 -65 -25 -90 -7 -25 -16 -55 -21 -67 -5 -13 -13 -33 -18 -45 -5 -13 -27 -61 -50 -107 -22 -46 -39 -87 -36 -90 3 -3 16 1 28 9 12 8 43 25 70 38 26 13 47 28 47 33 0 4 6 6 14 3 8 -3 11 -15 8 -29 -6 -33 17 -41 57 -21 30 16 31 16 37 -8 7 -30 -1 -144 -16 -216 -6 -30 -14 -72 -17 -93 -3 -20 -9 -40 -14 -43 -5 -3 -9 -20 -9 -39 0 -19 -4 -37 -10 -40 -5 -3 -10 -27 -10 -52 0 -39 2 -44 18 -37 9 4 33 9 52 11 29 4 37 1 45 -19 6 -13 21 -24 35 -26 27 -4 46 -25 55 -60 9 -36 71 -166 86 -183 8 -7 27 -32 43 -54 16 -22 60 -70 97 -106 l68 -66 10 -169 c6 -93 13 -306 17 -474 6 -265 5 -316 -10 -390 -9 -47 -22 -110 -27 -140 -6 -30 -15 -63 -20 -72 -5 -10 -9 -25 -9 -33 0 -8 -4 -23 -9 -33 -4 -9 -20 -43 -35 -74 -26 -58 -26 -58 -70 -58 -24 0 -60 -7 -79 -15 -20 -8 -52 -15 -71 -15 -19 0 -38 -4 -41 -10 -3 -5 -17 -10 -30 -10 -13 0 -45 -11 -71 -25 -26 -14 -53 -25 -60 -25 -8 0 -14 -4 -14 -8 0 -5 -10 -14 -22 -19 -47 -22 -143 -111 -193 -178 -17 -22 -35 -46 -42 -52 -16 -17 -59 -111 -69 -148 -4 -16 -9 -83 -11 -149 -4 -110 -2 -122 20 -170 14 -28 42 -67 63 -86 41 -37 132 -100 145 -100 4 0 10 -19 14 -42 6 -41 12 -60 36 -111 14 -30 54 -77 77 -91 10 -6 34 -21 53 -33 54 -36 111 -31 207 17 80 40 112 49 112 30 0 -23 108 -160 125 -160 3 0 25 -15 50 -34 53 -41 133 -61 202 -50 124 18 294 92 374 163 126 110 199 330 199 595 0 128 -9 194 -46 321 -47 164 -56 231 -56 425 0 187 9 260 47 376 30 88 89 197 131 241 54 57 80 57 117 -1 15 -24 27 -52 27 -63 0 -10 4 -23 9 -29 9 -10 14 -39 33 -199 21 -176 12 -631 -13 -692 -5 -13 -14 -35 -20 -50 -6 -16 -15 -36 -20 -45 -5 -10 -9 -27 -9 -37 0 -11 -4 -22 -9 -25 -5 -3 -12 -23 -15 -43 -4 -21 -12 -67 -18 -103 -14 -78 -16 -382 -3 -460 8 -56 33 -104 107 -213 45 -66 142 -169 171 -180 9 -3 17 -11 17 -17 0 -5 5 -10 10 -10 6 0 29 -14 52 -30 58 -42 138 -64 208 -57 75 8 122 29 205 92 39 29 80 56 93 60 17 5 48 -6 120 -42 114 -57 172 -63 234 -25 35 22 57 58 117 194 24 55 51 67 111 49 83 -25 115 -13 165 62 20 30 35 44 35 34 0 -24 43 -90 71 -109 13 -9 38 -28 54 -42 45 -41 155 -104 218 -126 74 -26 187 -27 242 -1 22 10 69 49 104 86 63 64 66 67 105 62 23 -3 75 -17 116 -32 97 -35 155 -30 257 20 54 26 92 56 145 111 103 107 113 111 210 89 97 -23 145 -12 199 45 55 57 80 147 109 380 13 114 -14 332 -51 402 -5 10 -9 25 -9 33 0 8 -4 23 -9 33 -4 9 -22 46 -40 82 -17 36 -40 81 -51 100 -23 41 -111 144 -153 180 -16 14 -41 35 -56 48 -14 13 -38 26 -54 29 -15 3 -30 10 -33 14 -3 5 -15 9 -28 9 -12 0 -31 7 -42 15 -10 8 -26 15 -35 15 -19 0 -76 28 -84 41 -4 5 -13 9 -22 9 -9 0 -36 15 -62 33 -25 18 -54 36 -63 40 -10 3 -18 11 -18 17 0 5 -6 10 -12 10 -24 0 -199 177 -268 269 -14 19 -30 39 -36 45 -23 24 -84 120 -107 169 -56 118 -62 150 -61 332 0 153 3 180 28 270 32 116 84 243 138 335 122 207 172 359 189 575 12 168 17 189 42 213 28 25 36 27 193 51 276 42 524 153 766 343 91 72 453 404 491 450 155 193 258 560 243 863 -17 337 -18 554 -2 697 42 362 154 875 222 1016 72 148 208 250 389 292 119 28 174 25 332 -15 91 -23 162 -35 208 -35 38 0 104 -5 145 -11 78 -10 309 3 381 22 45 11 124 79 149 128 10 20 22 54 26 75 7 39 -10 167 -27 198 -5 10 -9 23 -9 29 0 12 -50 120 -60 129 -3 3 -11 17 -19 32 -21 41 -111 131 -151 151 -19 10 -48 26 -65 37 -16 10 -39 19 -51 19 -11 1 -29 8 -40 16 -10 8 -29 15 -41 15 -12 0 -25 5 -28 10 -3 6 -21 10 -39 10 -19 0 -50 7 -69 15 -45 19 -422 22 -477 4 -19 -7 -64 -15 -100 -20 -125 -16 -175 -25 -197 -37 -12 -7 -35 -12 -52 -12 -16 0 -33 -4 -36 -10 -3 -5 -19 -10 -34 -10 -15 0 -36 -7 -47 -15 -10 -8 -31 -15 -46 -15 -15 0 -30 -4 -33 -10 -3 -5 -19 -10 -35 -10 -16 0 -32 -5 -35 -10 -3 -6 -25 -19 -49 -29 -23 -11 -66 -36 -95 -55 -29 -20 -57 -36 -61 -36 -5 0 -10 -3 -12 -7 -1 -5 -23 -24 -48 -44 -108 -88 -243 -236 -280 -308 -11 -22 -24 -42 -29 -45 -5 -4 -23 -34 -41 -69 -17 -34 -35 -69 -39 -77 -26 -50 -31 -62 -31 -83 0 -13 -4 -27 -9 -33 -5 -5 -12 -31 -15 -59 -3 -27 -11 -84 -17 -125 -13 -77 -15 -413 -8 -1280 3 -403 -1 -503 -22 -524 -5 -6 -9 -20 -9 -33 0 -13 -4 -31 -9 -41 -8 -15 -14 -30 -35 -82 -4 -8 -17 -33 -30 -55 -14 -22 -32 -56 -42 -75 -36 -68 -192 -208 -284 -253 -19 -10 -42 -21 -50 -26 -47 -25 -62 -31 -82 -31 -13 -1 -34 -7 -48 -15 -14 -8 -37 -14 -52 -15 -15 0 -29 -4 -32 -8 -3 -5 -51 -12 -107 -16 -55 -3 -109 -11 -119 -16 -24 -13 -116 -13 -140 0 -10 5 -56 13 -103 16 l-84 7 -32 61 c-17 33 -45 84 -61 111 -17 28 -34 59 -39 70 -5 11 -41 76 -81 145 -40 69 -78 134 -84 145 -17 29 -78 132 -97 163 -9 15 -32 52 -50 82 -19 30 -42 66 -52 80 -10 14 -43 63 -74 110 -87 131 -213 280 -273 323 -41 29 -182 97 -201 97 -10 0 -20 4 -23 9 -4 5 -25 12 -49 16 -23 4 -47 12 -54 17 -16 13 -196 4 -253 -12 -94 -27 -154 -55 -226 -106 -66 -46 -164 -147 -164 -169 0 -7 -8 -30 -19 -52 -74 -151 -134 -271 -144 -288 -7 -11 -25 -42 -41 -70 -39 -66 -130 -189 -181 -244 -45 -49 -125 -110 -170 -130 -16 -7 -43 -19 -58 -27 -39 -19 -175 -18 -201 1 -11 8 -28 15 -38 15 -10 0 -18 4 -18 9 0 5 -10 12 -22 15 -59 15 -198 160 -198 205 0 31 41 68 83 76 28 6 40 3 58 -14 13 -12 26 -21 29 -21 4 0 37 -29 75 -65 38 -36 73 -65 77 -65 4 0 8 12 8 26 0 25 -27 69 -102 169 -28 37 -34 52 -26 62 12 15 98 18 98 3 0 -5 7 -10 15 -10 8 0 47 -23 86 -51 92 -65 99 -68 99 -35 0 26 -39 71 -133 154 -20 18 -37 39 -37 46 0 37 120 146 160 146 17 0 120 -63 150 -91 17 -15 56 -39 65 -39 17 0 -6 31 -87 115 -129 134 -127 129 -126 254 0 58 -7 152 -17 209 -16 94 -16 104 -1 127 9 14 34 29 58 36 53 15 68 26 68 49 0 10 9 28 19 41 l19 23 -45 50 c-24 27 -42 56 -41 65 2 10 21 20 49 27 98 25 143 66 116 107 -12 18 -11 27 5 69 10 27 18 53 18 58 0 6 -22 10 -49 10 -31 0 -53 5 -61 15 -7 8 -18 15 -26 15 -7 0 -34 20 -60 45 -42 39 -46 46 -33 61 8 10 46 32 85 50 87 41 97 52 89 97 -6 32 -4 36 17 39 29 4 38 43 11 51 -29 10 -147 91 -190 132 -82 77 -113 110 -177 190 -83 105 -119 162 -174 277 -65 136 -74 170 -83 338 -5 85 -13 200 -18 255 -23 222 -31 304 -41 385 -6 47 -15 130 -21 185 -9 88 -17 138 -48 286 -4 20 -27 75 -50 122 -38 78 -56 100 -128 157 -16 13 -113 13 -113 0z m52 -397 c28 -33 39 -74 68 -258 26 -163 30 -692 4 -702 -8 -3 -25 4 -38 16 -23 22 -23 23 -8 80 l15 57 -28 32 c-28 31 -67 42 -80 22 -10 -17 -35 -11 -35 8 0 9 -14 32 -31 50 -31 33 -32 33 -103 29 -39 -3 -88 -9 -110 -12 l-39 -7 7 48 c10 67 42 154 107 290 16 33 29 66 29 72 0 7 3 12 8 12 4 0 14 15 21 33 8 17 29 55 46 82 17 28 36 61 43 75 18 35 33 53 62 72 32 22 44 22 62 1z m-2582 -423 c0 -5 5 -10 11 -10 6 0 26 -12 43 -27 17 -16 49 -41 71 -58 21 -16 46 -37 55 -45 8 -8 31 -27 50 -41 69 -53 132 -117 126 -128 -4 -6 -26 -11 -50 -11 -33 0 -48 -6 -69 -28 -15 -15 -27 -38 -27 -50 0 -13 -17 -40 -40 -63 -48 -48 -50 -72 -10 -119 41 -47 38 -77 -9 -131 -22 -24 -41 -41 -43 -39 -15 20 -28 68 -28 105 0 24 -4 54 -9 67 -5 13 -14 52 -21 88 -24 125 -46 233 -60 295 -6 28 -14 68 -17 90 -3 22 -9 44 -14 50 -5 5 -9 22 -9 37 0 23 4 28 25 28 14 0 25 -4 25 -10z m1659 -1670 c46 -23 90 -74 121 -138 34 -70 37 -80 60 -172 18 -69 21 -101 16 -170 -7 -84 -31 -205 -46 -225 -4 -5 -10 -22 -14 -37 -9 -38 -50 -83 -103 -112 -43 -24 -48 -25 -86 -12 -54 18 -57 32 -10 53 50 24 79 57 102 118 52 141 25 309 -67 408 -14 15 -32 27 -39 27 -7 0 -13 5 -13 10 0 6 -17 10 -39 10 -31 0 -46 -7 -79 -39 -22 -21 -43 -53 -47 -70 -4 -17 -11 -31 -16 -31 -5 0 -9 -10 -9 -22 0 -15 -3 -19 -10 -12 -14 14 3 166 25 230 33 97 55 134 103 169 55 40 94 44 151 15z m-731 -120 c2 -5 11 -10 19 -10 36 0 133 -154 133 -210 0 -10 5 -22 10 -25 6 -3 10 -22 10 -42 0 -20 5 -53 12 -75 9 -29 9 -41 0 -50 -9 -9 -12 -6 -12 14 0 14 -7 28 -15 32 -8 3 -15 13 -15 23 -1 20 -43 73 -58 73 -5 0 -15 7 -22 15 -17 20 -69 19 -102 -3 -34 -22 -87 -91 -88 -113 0 -8 -5 -20 -12 -27 -8 -8 -12 -52 -12 -125 -1 -121 11 -165 61 -235 27 -36 86 -65 121 -59 12 2 25 0 28 -4 3 -5 -4 -9 -15 -9 -12 0 -21 -6 -21 -14 0 -7 -19 -19 -43 -26 -39 -10 -49 -9 -93 11 -56 27 -74 45 -105 109 -81 168 -94 323 -43 535 4 17 16 45 26 63 10 18 18 38 18 45 0 23 61 87 103 107 43 21 108 21 115 0z m606 -357 c-1 -143 -4 -149 -65 -115 -30 17 -34 24 -37 67 -3 51 20 112 60 155 38 41 43 28 42 -107z m-547 -3 c43 -40 71 -86 76 -128 7 -61 0 -76 -45 -101 -54 -28 -58 -21 -58 100 0 52 -5 100 -10 105 -11 11 -4 44 9 44 4 0 17 -9 28 -20z m3003 -3662 c0 -15 4 -36 9 -46 9 -16 24 -65 52 -167 17 -61 40 -117 82 -200 57 -113 136 -215 222 -286 31 -25 48 -50 79 -114 39 -80 43 -92 52 -150 16 -109 5 -292 -25 -427 -24 -104 -32 -144 -37 -173 -3 -16 -9 -39 -13 -50 -5 -11 -14 -45 -21 -75 -14 -65 -58 -223 -72 -262 -10 -26 -48 -41 -48 -19 0 5 -8 11 -17 15 -27 9 -85 45 -111 69 -27 25 -90 152 -120 242 -46 137 -85 341 -121 630 -34 275 -66 724 -57 801 9 79 40 171 77 229 29 46 31 47 49 30 11 -10 20 -31 20 -47z m1179 -1056 c43 -44 52 -58 79 -122 40 -96 37 -410 -8 -695 -24 -157 -28 -172 -63 -243 -32 -66 -40 -69 -89 -30 -42 33 -69 48 -155 85 -39 16 -42 21 -38 48 3 17 35 212 70 435 76 470 82 506 101 543 21 40 50 35 103 -21z"/>
</g>
</svg>