<?xml version="1.0" standalone="no"?>
<!DOCTYPE svg PUBLIC "-//W3C//DTD SVG 20010904//EN"
 "http://www.w3.org/TR/2001/REC-SVG-20010904/DTD/svg10.dtd">
<svg version="1.0" xmlns="http://www.w3.org/2000/svg"
 width="484.000000pt" height="412.000000pt" viewBox="0 0 484.000000 412.000000"
 preserveAspectRatio="xMidYMid meet">

<g transform="translate(0.000000,412.000000) scale(0.100000,-0.100000)"
fill="#000000" stroke="none">
<path d="M1455 4067 c-28 -29 -85 -107 -126 -173 l-74 -121 -30 13 c-16 7 -47
13 -68 14 l-37 0 15 36 c19 45 19 48 0 40 -13 -5 -13 -2 0 25 9 16 13 34 10
39 -13 21 -35 8 -84 -47 -34 -38 -51 -51 -51 -39 0 34 -32 116 -46 116 -18 0
-29 -24 -44 -95 -19 -90 -21 -91 -62 -38 -57 75 -91 104 -108 93 -12 -8 -9
-21 23 -85 20 -41 37 -78 37 -80 0 -3 -15 -5 -33 -5 -19 0 -61 -14 -95 -30
l-61 -31 -68 53 c-38 29 -116 83 -175 121 -121 77 -161 85 -203 42 -35 -34
-33 -111 5 -262 17 -65 36 -166 42 -226 10 -104 9 -109 -15 -160 -13 -28 -35
-85 -48 -126 -15 -46 -36 -87 -54 -107 l-31 -32 38 -6 c35 -6 37 -8 26 -26 -7
-12 -31 -33 -52 -48 l-40 -27 50 -5 49 -5 -28 -25 c-16 -14 -47 -32 -70 -42
l-42 -16 53 -7 c29 -4 52 -13 52 -19 0 -33 83 -178 133 -232 l55 -60 -28 -59
c-50 -106 -48 -115 9 -55 35 37 50 48 46 33 -5 -20 -3 -21 33 -16 53 7 59 -8
24 -59 -16 -24 -33 -54 -37 -68 -6 -20 4 -15 49 30 38 37 56 49 56 37 0 -13 9
-17 34 -17 61 0 69 -8 45 -42 -25 -34 -49 -110 -48 -147 0 -19 5 -11 19 28 20
58 90 142 90 107 0 -14 5 -17 24 -12 15 4 45 -4 81 -20 64 -30 246 -69 366
-80 79 -7 82 -8 94 -38 37 -90 26 -210 -29 -318 -19 -38 -32 -68 -30 -68 2 0
18 9 36 20 40 24 49 25 41 4 -5 -14 -2 -16 20 -10 24 6 27 4 27 -22 0 -15 -9
-60 -20 -100 -25 -88 -25 -95 -2 -87 30 9 73 -20 92 -62 19 -41 47 -74 98
-114 l33 -25 6 -190 c6 -203 -1 -271 -37 -347 -21 -44 -23 -45 -78 -52 -88
-11 -156 -41 -216 -96 -64 -59 -86 -100 -86 -166 0 -58 16 -84 74 -118 31 -18
45 -34 49 -55 7 -31 76 -90 106 -90 14 1 57 15 103 34 11 5 18 1 23 -13 8 -26
84 -79 124 -87 57 -12 186 31 239 80 32 28 57 80 71 144 16 77 14 107 -15 206
-23 77 -26 102 -22 195 3 90 8 114 30 156 45 88 89 108 115 54 41 -85 39 -332
-2 -422 -28 -59 -40 -154 -30 -232 8 -68 55 -132 140 -190 52 -36 63 -40 119
-40 52 0 70 5 105 28 46 31 55 31 131 1 40 -15 49 -16 75 -3 17 8 39 32 51 54
19 38 23 40 72 43 41 2 55 8 71 28 18 23 20 23 25 6 8 -25 84 -79 137 -97 73
-26 121 -20 170 21 34 28 48 34 68 29 112 -28 172 -15 250 51 38 33 43 34 91
28 99 -13 135 39 135 196 0 128 -25 190 -109 274 -54 53 -71 64 -137 84 -96
29 -179 83 -261 170 -83 88 -98 121 -98 214 0 91 24 168 80 253 58 89 81 148
87 225 3 39 11 77 17 85 6 8 45 18 93 25 170 23 297 82 479 224 134 105 172
152 206 256 19 58 21 89 23 280 1 232 7 275 67 482 22 80 39 117 64 146 65 76
193 107 322 78 91 -21 308 -22 356 -2 70 29 83 90 40 181 -32 68 -80 108 -164
137 -57 20 -84 23 -220 22 -274 0 -455 -60 -591 -194 -141 -140 -153 -190
-144 -612 6 -264 5 -314 -9 -361 -32 -111 -117 -198 -233 -238 -70 -25 -204
-40 -287 -32 l-62 6 -48 76 c-92 145 -211 305 -281 377 -78 80 -142 112 -246
121 -88 9 -212 -36 -260 -93 -8 -11 -35 -55 -60 -99 -57 -103 -176 -226 -235
-243 -60 -17 -93 -15 -149 12 -67 31 -103 70 -85 91 20 24 64 18 105 -15 21
-16 39 -30 41 -30 13 0 -1 25 -32 60 l-36 39 27 7 c19 5 39 -1 75 -24 62 -38
70 -17 10 25 -22 15 -40 33 -40 40 0 7 16 23 37 37 39 27 48 25 128 -26 17
-11 2 7 -32 39 -55 52 -61 61 -56 90 3 18 0 55 -7 83 -13 56 -4 80 32 80 30 0
40 41 15 67 l-20 22 27 11 c15 5 31 10 35 10 16 0 33 28 22 35 -7 4 -5 15 5
31 16 24 16 24 -12 24 -30 0 -94 33 -94 48 0 5 21 17 46 27 36 14 45 21 41 36
-3 12 0 19 9 19 27 0 13 15 -48 50 -73 42 -173 147 -210 221 -22 44 -29 77
-38 184 -15 173 -38 329 -56 388 -20 62 -72 117 -110 117 -21 0 -41 -14 -79
-53z m92 -144 c23 -52 33 -358 12 -351 -8 3 -13 17 -12 33 3 37 -15 58 -42 51
-14 -4 -25 1 -34 16 -11 18 -19 20 -67 15 l-54 -6 6 27 c16 69 132 252 160
252 8 0 22 -17 31 -37z m-1127 -211 c64 -46 65 -47 36 -52 -16 -3 -34 -14 -40
-25 -6 -10 -20 -27 -31 -36 -17 -15 -18 -21 -7 -36 24 -35 25 -45 4 -65 l-21
-21 -5 24 c-4 13 -13 56 -21 94 -8 39 -23 100 -33 138 l-19 67 36 -21 c20 -11
65 -42 101 -67z m685 -604 c16 -7 37 -34 56 -74 28 -56 31 -70 25 -119 -11
-102 -64 -167 -118 -146 l-23 9 27 11 c78 30 73 186 -8 223 -32 15 -71 -5 -90
-47 -13 -30 -14 -29 -8 19 11 106 68 157 139 124z m-326 -64 c20 -16 36 -44
46 -77 20 -68 19 -79 -5 -40 -48 80 -141 34 -142 -69 -1 -65 28 -111 73 -118
l34 -5 -31 -13 c-124 -52 -196 227 -83 322 39 33 69 33 108 0z m257 -119 c-1
-30 -4 -55 -8 -55 -41 0 -50 42 -17 84 11 14 21 26 23 26 1 0 2 -25 2 -55z
m-224 -59 c2 -10 -7 -25 -19 -33 -23 -15 -23 -15 -23 25 0 22 -3 49 -6 59 -5
14 -1 12 19 -7 14 -14 27 -33 29 -44z m1408 -1480 c32 -89 85 -172 130 -201
40 -26 77 -88 85 -145 4 -27 0 -74 -9 -120 -18 -84 -74 -270 -82 -270 -2 0
-22 9 -44 20 -87 44 -136 211 -162 551 -12 153 -11 156 11 202 13 27 28 46 33
45 6 -2 23 -39 38 -82z m531 -356 c10 -6 27 -25 36 -43 33 -61 18 -298 -24
-382 -20 -40 -20 -40 -37 -26 -8 7 -35 20 -59 29 l-44 17 38 197 c21 109 40
202 44 208 8 13 21 13 46 0z"/>
</g>
</svg>
